<svg xmlns="http://www.w3.org/2000/svg" xmlns:xlink="http://www.w3.org/1999/xlink" width="749" height="94" viewBox="0 0 749 94">
  <defs>
    <clipPath id="clip-long-logo-white">
      <rect width="749" height="94"/>
    </clipPath>
  </defs>
  <g id="long-logo-white" clip-path="url(#clip-long-logo-white)">
    <g id="Layer_2" data-name="Layer 2">
      <g id="Layer_1" data-name="Layer 1">
        <path id="Path_31" data-name="Path 31" d="M124.548,47.19V94.345H72.234q-40.562,0-41.923-36.907V36.8A35.545,35.545,0,0,1,41.92,9.5C49.409,3.153,59.764,0,73.058,0h38.806V20.209H73.7A18.131,18.131,0,0,0,60.839,24.33a17.593,17.593,0,0,0-4.622,12.756c-.215,2.508-.287,5.841-.287,9.961s0,7.489.287,10.1a18.525,18.525,0,0,0,4.3,12.935,17.128,17.128,0,0,0,12.541,4.049H99.179V47.19Z" transform="translate(78.26)" fill="#fff"/>
        <path id="Path_32" data-name="Path 32" d="M94.238,47.19V57.438q-1.4,36.907-41.923,36.907H12.9V74.136H51.526a17.02,17.02,0,0,0,12.505-4.049,18.382,18.382,0,0,0,4.336-12.756c.179-2.616.251-5.984.251-10.1s0-7.453-.251-9.961a17.629,17.629,0,0,0-4.658-12.756,17.916,17.916,0,0,0-12.864-4.121H25.369V47.37H0V0H51.526Q71.484,0,82.413,9.5c7.381,6.342,11.215,15.443,11.609,27.3C94.2,39.415,94.238,43,94.238,47.19Z" fill="#fff"/>
        <path id="Path_33" data-name="Path 33" d="M68.086,64.513a2.078,2.078,0,0,1-.645-1.5V7a2.257,2.257,0,0,1,.573-1.577,2.114,2.114,0,0,1,1.433-.645H92.129a29.418,29.418,0,0,1,19.851,6.091,22.825,22.825,0,0,1,7.632,17.45V41.51q-.86,23.649-26.838,23.649H69.447a2.078,2.078,0,0,1-1.362-.645ZM92.272,52.295a10.965,10.965,0,0,0,8.026-2.58,11.86,11.86,0,0,0,2.759-8.17c0-1.684.179-3.834.179-6.486s0-4.766-.179-6.378a11.215,11.215,0,0,0-2.974-8.17A11.609,11.609,0,0,0,91.842,17.9H83.78v34.4Z" transform="translate(174.209 12.202)" fill="#fff"/>
        <path id="Path_34" data-name="Path 34" d="M86.465,64.472a2.078,2.078,0,0,1-.645-1.5v-56a2.293,2.293,0,0,1,.645-1.577,2.042,2.042,0,0,1,1.541-.645h40.562a2.186,2.186,0,0,1,2.222,2.222v8.564a2.043,2.043,0,0,1-.645,1.541,2.293,2.293,0,0,1-1.577.609H101.3V28.64h25.369a2.186,2.186,0,0,1,2.222,2.222v7.847a2.186,2.186,0,0,1-.645,1.612,2.15,2.15,0,0,1-1.577.645H101.3V52.253h27.949a2.222,2.222,0,0,1,2.257,2.257V63a1.971,1.971,0,0,1-.645,1.541,2.15,2.15,0,0,1-1.612.609H87.827a2.078,2.078,0,0,1-1.362-.681Z" transform="translate(221.688 12.244)" fill="#fff"/>
        <path id="Path_35" data-name="Path 35" d="M103,64.473a2.078,2.078,0,0,1-.645-1.5v-56a2.15,2.15,0,0,1,.609-1.577,1.971,1.971,0,0,1,1.541-.645h40.7a2.186,2.186,0,0,1,1.612.645,2.15,2.15,0,0,1,.645,1.577v8.564a2.043,2.043,0,0,1-.645,1.541,2.293,2.293,0,0,1-1.612.609H117.974V28.641h25.333a2.186,2.186,0,0,1,1.612.645,2.15,2.15,0,0,1,.645,1.577V38.71a2.222,2.222,0,0,1-2.257,2.257H117.974V52.254h27.949a2.15,2.15,0,0,1,1.577.645,2.186,2.186,0,0,1,.645,1.612V63a1.971,1.971,0,0,1-.645,1.541,2.15,2.15,0,0,1-1.577.609H104.68A2.078,2.078,0,0,1,103,64.473Z" transform="translate(264.387 12.243)" fill="#fff"/>
        <path id="Path_36" data-name="Path 36" d="M119.555,64.5a2.078,2.078,0,0,1-.645-1.5V7a2.293,2.293,0,0,1,.609-1.577,2.042,2.042,0,0,1,1.577-.645h24.4a27.483,27.483,0,0,1,17.593,5.088A17.916,17.916,0,0,1,169.4,24.768a17.378,17.378,0,0,1-6.378,14.727,28.343,28.343,0,0,1-17.593,4.873h-9.854V63.036a2.15,2.15,0,0,1-.573,1.5,2.114,2.114,0,0,1-1.577.645h-12.4a2.078,2.078,0,0,1-1.469-.681Zm25.512-32.464a7.991,7.991,0,0,0,5.554-1.863,7.167,7.167,0,0,0,2.042-5.482A7.954,7.954,0,0,0,150.8,19.25a7.417,7.417,0,0,0-5.733-2.042h-9.675V32.041Z" transform="translate(307.165 12.211)" fill="#fff"/>
        <path id="Path_37" data-name="Path 37" d="M143.618,60.536a22.789,22.789,0,0,1-7.525-17.378V27.391a21.822,21.822,0,0,1,7.561-16.877,29.7,29.7,0,0,1,19.528-5.984,36.763,36.763,0,0,1,14.333,2.652,23.4,23.4,0,0,1,9.388,6.88,14.942,14.942,0,0,1,3.4,8.564,1.828,1.828,0,0,1-.573,1.362,1.792,1.792,0,0,1-1.326.537H175.186a2.293,2.293,0,0,1-1.326-.287,3.583,3.583,0,0,1-.932-.9,10.212,10.212,0,0,0-3.3-4.157,10.749,10.749,0,0,0-6.45-1.72c-6.665,0-10.1,3.583-10.355,10.355V42.727q.394,10.965,10.535,10.965a11.825,11.825,0,0,0,7.955-2.508,9.46,9.46,0,0,0,2.9-7.6V42.154H166.55a2.114,2.114,0,0,1-1.577-.645,2.185,2.185,0,0,1-.645-1.612V33.089a2.186,2.186,0,0,1,.645-1.612,2.114,2.114,0,0,1,1.577-.645h21.929a2.15,2.15,0,0,1,1.577.645,2.186,2.186,0,0,1,.645,1.612v10a22.789,22.789,0,0,1-3.583,12.649,21.821,21.821,0,0,1-9.6,8.1,35.187,35.187,0,0,1-14.333,2.795,28.88,28.88,0,0,1-19.564-6.091Z" transform="translate(351.541 11.593)" fill="#fff"/>
        <path id="Path_38" data-name="Path 38" d="M155.745,64.509A2.078,2.078,0,0,1,155.1,63V7a2.293,2.293,0,0,1,.609-1.577,2.042,2.042,0,0,1,1.541-.645h23.721a27.841,27.841,0,0,1,17.916,5.16A17.916,17.916,0,0,1,205.3,24.521,18.238,18.238,0,0,1,202.505,34.8a18.812,18.812,0,0,1-7.811,6.736l11.645,21.033a2.151,2.151,0,0,1,.251.967,1.827,1.827,0,0,1-1.792,1.792H192.616A3.583,3.583,0,0,1,189.033,63l-9.5-18.7H171.26V63.04a1.971,1.971,0,0,1-.645,1.541A2.15,2.15,0,0,1,169,65.19H157.178A2.078,2.078,0,0,1,155.745,64.509Zm25.082-33.073a7.811,7.811,0,0,0,5.662-1.863,6.736,6.736,0,0,0,1.935-5.124,7.166,7.166,0,0,0-1.935-5.267,7.56,7.56,0,0,0-5.661-1.971H171.26V31.544Z" transform="translate(400.651 12.207)" fill="#fff"/>
        <path id="Path_39" data-name="Path 39" d="M172.7,64.557a1.72,1.72,0,0,1-.537-1.218,2.331,2.331,0,0,1,0-.788l20.1-55.288a3.332,3.332,0,0,1,3.583-2.508h13.473A3.332,3.332,0,0,1,212.9,7.262l20.1,55.288a2.328,2.328,0,0,1,0,.788,1.719,1.719,0,0,1-.538,1.218,1.684,1.684,0,0,1-1.254.573H220a3.01,3.01,0,0,1-2.938-1.9l-3.117-8.349H191.37l-3.117,8.349a3.01,3.01,0,0,1-2.938,1.9H174.1a1.684,1.684,0,0,1-1.4-.573Zm22.144-22.61h15.336l-7.668-21.929Z" transform="translate(444.644 12.231)" fill="#fff"/>
        <path id="Path_40" data-name="Path 40" d="M192.836,64.51a1.97,1.97,0,0,1-.645-1.541v-56a2.15,2.15,0,0,1,.645-1.577,2.186,2.186,0,0,1,1.612-.645h9.746a3.189,3.189,0,0,1,3.082,1.9l14.87,26.551L237.053,6.642a3.261,3.261,0,0,1,3.117-1.9h9.746a2.186,2.186,0,0,1,2.222,2.222V63.005a1.971,1.971,0,0,1-.645,1.541,2.15,2.15,0,0,1-1.577.609H238.952a2.221,2.221,0,0,1-2.15-2.15V31.581l-9.459,17.092a3.583,3.583,0,0,1-3.01,2.007h-4.658a3.583,3.583,0,0,1-3.046-2.007L207.42,31.617V63.005a1.971,1.971,0,0,1-.645,1.541,2.15,2.15,0,0,1-1.612.609h-10.75A2.15,2.15,0,0,1,192.836,64.51Z" transform="translate(496.46 12.241)" fill="#fff"/>
      </g>
    </g>
  </g>
</svg>
